<svg xmlns="http://www.w3.org/2000/svg" xmlns:xlink="http://www.w3.org/1999/xlink" width="62" height="61" viewBox="0 0 62 61">
  <defs>
    <clipPath id="clip-path">
      <rect id="Rectangle_16" data-name="Rectangle 16" width="62" height="61" transform="translate(122 916)" fill="none" stroke="#000" stroke-width="1"/>
    </clipPath>
  </defs>
  <g id="Mask_Group_1" data-name="Mask Group 1" transform="translate(-122 -916)" clip-path="url(#clip-path)">
    <g id="Group_11" data-name="Group 11">
      <g id="Group_10" data-name="Group 10" transform="translate(-35 24)">
        <path id="path857-7" d="M28.574,29.275,0,0" transform="translate(94 862.01)" fill="none" stroke="#00243a" stroke-linecap="round" stroke-linejoin="round" stroke-miterlimit="10" stroke-width="1"/>
        <path id="path861-6" d="M0,0V23.442" transform="translate(122.574 891.285) rotate(180)" fill="none" stroke="#00243a" stroke-linecap="round" stroke-linejoin="round" stroke-miterlimit="10" stroke-width="1"/>
        <path id="path837" d="M0-246.467l28.6-29.294" transform="translate(124.997 1170.752)" fill="none" stroke="#00243a" stroke-linecap="round" stroke-linejoin="round" stroke-miterlimit="10" stroke-width="1"/>
        <path id="path853" d="M0,0V23.488" transform="translate(125.003 900.797)" fill="none" stroke="#00243a" stroke-linecap="round" stroke-linejoin="round" stroke-miterlimit="10" stroke-width="1"/>
        <path id="path857" d="M-240.414,0l-28.574,29.275" transform="translate(393.985 871.522)" fill="none" stroke="#00243a" stroke-linecap="round" stroke-linejoin="round" stroke-miterlimit="10" stroke-width="1"/>
        <path id="path861" d="M0,0V23.442" transform="translate(153.596 871.522)" fill="none" stroke="#00243a" stroke-linecap="round" stroke-linejoin="round" stroke-miterlimit="10" stroke-width="1"/>
        <path id="path857-7-2" data-name="path857-7" d="M28.574,29.275,0,0" transform="translate(124.997 900.797) rotate(180)" fill="none" stroke="#00243a" stroke-linecap="round" stroke-linejoin="round" stroke-miterlimit="10" stroke-width="1"/>
        <path id="path837-9" d="M0,0,28.6,29.294" transform="translate(124.997 924.285) rotate(180)" fill="none" stroke="#00243a" stroke-linecap="round" stroke-linejoin="round" stroke-miterlimit="10" stroke-width="1"/>
        <path id="path861-6-2" data-name="path861-6" d="M0,0V23.442" transform="translate(96.422 871.522)" fill="none" stroke="#00243a" stroke-linecap="round" stroke-linejoin="round" stroke-miterlimit="10" stroke-width="1"/>
        <path id="path837-2" data-name="path837" d="M0-272.945l2.749-2.816" transform="translate(130.152 592.055) rotate(180)" fill="none" stroke="#00243a" stroke-linecap="round" stroke-linejoin="round" stroke-miterlimit="10" stroke-width="1"/>
        <path id="path857-2" data-name="path857" d="M-243.333,0l-25.656,26.285" transform="translate(-115.907 891.285) rotate(180)" fill="none" stroke="#00243a" stroke-linecap="round" stroke-linejoin="round" stroke-miterlimit="10" stroke-width="1"/>
        <path id="path861-2" data-name="path861" d="M0,0V23.442" transform="translate(127.4 891.285) rotate(180)" fill="none" stroke="#00243a" stroke-linecap="round" stroke-linejoin="round" stroke-miterlimit="10" stroke-width="1"/>
        <path id="path837-9-2" data-name="path837-9" d="M0,0,25.847,26.478" transform="translate(94 899.522)" fill="none" stroke="#00243a" stroke-linecap="round" stroke-linejoin="round" stroke-miterlimit="10" stroke-width="1"/>
        <path id="path837-9-3" data-name="path837-9" d="M0,0,2.749,2.816" transform="translate(119.847 865)" fill="none" stroke="#00243a" stroke-linecap="round" stroke-linejoin="round" stroke-miterlimit="10" stroke-width="1"/>
        <path id="path837-3" data-name="path837" d="M0-249.283l25.848-26.478" transform="translate(156 650.239) rotate(180)" fill="none" stroke="#00243a" stroke-linecap="round" stroke-linejoin="round" stroke-miterlimit="10" stroke-width="1"/>
        <path id="path853-2" data-name="path853" d="M0,0V23.462" transform="translate(155.994 922.984) rotate(180)" fill="none" stroke="#00243a" stroke-linecap="round" stroke-linejoin="round" stroke-miterlimit="10" stroke-width="1"/>
        <path id="path857-3" data-name="path857" d="M-266.031,0l-2.219,2.273-.74.758" transform="translate(-113.031 926.081) rotate(180)" fill="none" stroke="#00243a" stroke-linecap="round" stroke-linejoin="round" stroke-miterlimit="10" stroke-width="1"/>
      </g>
      <g id="Group_10-2" data-name="Group 10" transform="translate(27 24)">
        <path id="path857-7-3" data-name="path857-7" d="M28.574,29.275,0,0" transform="translate(94 862.01)" fill="none" stroke="#00243a" stroke-linecap="round" stroke-linejoin="round" stroke-miterlimit="10" stroke-width="1"/>
        <path id="path861-6-3" data-name="path861-6" d="M0,0V23.442" transform="translate(122.574 891.285) rotate(180)" fill="none" stroke="#00243a" stroke-linecap="round" stroke-linejoin="round" stroke-miterlimit="10" stroke-width="1"/>
        <path id="path837-4" data-name="path837" d="M0-246.467l28.6-29.294" transform="translate(124.997 1170.752)" fill="none" stroke="#00243a" stroke-linecap="round" stroke-linejoin="round" stroke-miterlimit="10" stroke-width="1"/>
        <path id="path853-3" data-name="path853" d="M0,0V23.488" transform="translate(125.003 900.797)" fill="none" stroke="#00243a" stroke-linecap="round" stroke-linejoin="round" stroke-miterlimit="10" stroke-width="1"/>
        <path id="path857-4" data-name="path857" d="M-240.414,0l-28.574,29.275" transform="translate(393.985 871.522)" fill="none" stroke="#00243a" stroke-linecap="round" stroke-linejoin="round" stroke-miterlimit="10" stroke-width="1"/>
        <path id="path861-3" data-name="path861" d="M0,0V23.442" transform="translate(153.596 871.522)" fill="none" stroke="#00243a" stroke-linecap="round" stroke-linejoin="round" stroke-miterlimit="10" stroke-width="1"/>
        <path id="path857-7-4" data-name="path857-7" d="M28.574,29.275,0,0" transform="translate(124.997 900.797) rotate(180)" fill="none" stroke="#00243a" stroke-linecap="round" stroke-linejoin="round" stroke-miterlimit="10" stroke-width="1"/>
        <path id="path837-9-4" data-name="path837-9" d="M0,0,28.6,29.294" transform="translate(124.997 924.285) rotate(180)" fill="none" stroke="#00243a" stroke-linecap="round" stroke-linejoin="round" stroke-miterlimit="10" stroke-width="1"/>
        <path id="path861-6-4" data-name="path861-6" d="M0,0V23.442" transform="translate(96.422 871.522)" fill="none" stroke="#00243a" stroke-linecap="round" stroke-linejoin="round" stroke-miterlimit="10" stroke-width="1"/>
        <path id="path837-5" data-name="path837" d="M0-272.945l2.749-2.816" transform="translate(130.152 592.055) rotate(180)" fill="none" stroke="#00243a" stroke-linecap="round" stroke-linejoin="round" stroke-miterlimit="10" stroke-width="1"/>
        <path id="path857-5" data-name="path857" d="M-243.333,0l-25.656,26.285" transform="translate(-115.907 891.285) rotate(180)" fill="none" stroke="#00243a" stroke-linecap="round" stroke-linejoin="round" stroke-miterlimit="10" stroke-width="1"/>
        <path id="path861-4" data-name="path861" d="M0,0V23.442" transform="translate(127.4 891.285) rotate(180)" fill="none" stroke="#00243a" stroke-linecap="round" stroke-linejoin="round" stroke-miterlimit="10" stroke-width="1"/>
        <path id="path837-9-5" data-name="path837-9" d="M0,0,25.847,26.478" transform="translate(94 899.522)" fill="none" stroke="#00243a" stroke-linecap="round" stroke-linejoin="round" stroke-miterlimit="10" stroke-width="1"/>
        <path id="path837-9-6" data-name="path837-9" d="M0,0,2.749,2.816" transform="translate(119.847 865)" fill="none" stroke="#00243a" stroke-linecap="round" stroke-linejoin="round" stroke-miterlimit="10" stroke-width="1"/>
        <path id="path837-6" data-name="path837" d="M0-249.283l25.848-26.478" transform="translate(156 650.239) rotate(180)" fill="none" stroke="#00243a" stroke-linecap="round" stroke-linejoin="round" stroke-miterlimit="10" stroke-width="1"/>
        <path id="path853-4" data-name="path853" d="M0,0V23.462" transform="translate(155.994 922.984) rotate(180)" fill="none" stroke="#00243a" stroke-linecap="round" stroke-linejoin="round" stroke-miterlimit="10" stroke-width="1"/>
        <path id="path857-6" data-name="path857" d="M-266.031,0l-2.219,2.273-.74.758" transform="translate(-113.031 926.081) rotate(180)" fill="none" stroke="#00243a" stroke-linecap="round" stroke-linejoin="round" stroke-miterlimit="10" stroke-width="1"/>
      </g>
      <g id="Group_10-3" data-name="Group 10" transform="translate(89 24)">
        <path id="path857-7-5" data-name="path857-7" d="M28.574,29.275,0,0" transform="translate(94 862.01)" fill="none" stroke="#00243a" stroke-linecap="round" stroke-linejoin="round" stroke-miterlimit="10" stroke-width="1"/>
        <path id="path861-6-5" data-name="path861-6" d="M0,0V23.442" transform="translate(122.574 891.285) rotate(180)" fill="none" stroke="#00243a" stroke-linecap="round" stroke-linejoin="round" stroke-miterlimit="10" stroke-width="1"/>
        <path id="path837-7" data-name="path837" d="M0-246.467l28.6-29.294" transform="translate(124.997 1170.752)" fill="none" stroke="#00243a" stroke-linecap="round" stroke-linejoin="round" stroke-miterlimit="10" stroke-width="1"/>
        <path id="path853-5" data-name="path853" d="M0,0V23.488" transform="translate(125.003 900.797)" fill="none" stroke="#00243a" stroke-linecap="round" stroke-linejoin="round" stroke-miterlimit="10" stroke-width="1"/>
        <path id="path857-7-6" data-name="path857" d="M-240.414,0l-28.574,29.275" transform="translate(393.985 871.522)" fill="none" stroke="#00243a" stroke-linecap="round" stroke-linejoin="round" stroke-miterlimit="10" stroke-width="1"/>
        <path id="path861-5" data-name="path861" d="M0,0V23.442" transform="translate(153.596 871.522)" fill="none" stroke="#00243a" stroke-linecap="round" stroke-linejoin="round" stroke-miterlimit="10" stroke-width="1"/>
        <path id="path857-7-7" data-name="path857-7" d="M28.574,29.275,0,0" transform="translate(124.997 900.797) rotate(180)" fill="none" stroke="#00243a" stroke-linecap="round" stroke-linejoin="round" stroke-miterlimit="10" stroke-width="1"/>
        <path id="path837-9-7" data-name="path837-9" d="M0,0,28.6,29.294" transform="translate(124.997 924.285) rotate(180)" fill="none" stroke="#00243a" stroke-linecap="round" stroke-linejoin="round" stroke-miterlimit="10" stroke-width="1"/>
        <path id="path861-6-6" data-name="path861-6" d="M0,0V23.442" transform="translate(96.422 871.522)" fill="none" stroke="#00243a" stroke-linecap="round" stroke-linejoin="round" stroke-miterlimit="10" stroke-width="1"/>
        <path id="path837-8" data-name="path837" d="M0-272.945l2.749-2.816" transform="translate(130.152 592.055) rotate(180)" fill="none" stroke="#00243a" stroke-linecap="round" stroke-linejoin="round" stroke-miterlimit="10" stroke-width="1"/>
        <path id="path857-8" data-name="path857" d="M-243.333,0l-25.656,26.285" transform="translate(-115.907 891.285) rotate(180)" fill="none" stroke="#00243a" stroke-linecap="round" stroke-linejoin="round" stroke-miterlimit="10" stroke-width="1"/>
        <path id="path861-6-7" data-name="path861" d="M0,0V23.442" transform="translate(127.4 891.285) rotate(180)" fill="none" stroke="#00243a" stroke-linecap="round" stroke-linejoin="round" stroke-miterlimit="10" stroke-width="1"/>
        <path id="path837-9-8" data-name="path837-9" d="M0,0,25.847,26.478" transform="translate(94 899.522)" fill="none" stroke="#00243a" stroke-linecap="round" stroke-linejoin="round" stroke-miterlimit="10" stroke-width="1"/>
        <path id="path837-9-9" data-name="path837-9" d="M0,0,2.749,2.816" transform="translate(119.847 865)" fill="none" stroke="#00243a" stroke-linecap="round" stroke-linejoin="round" stroke-miterlimit="10" stroke-width="1"/>
        <path id="path837-9-10" data-name="path837" d="M0-249.283l25.848-26.478" transform="translate(156 650.239) rotate(180)" fill="none" stroke="#00243a" stroke-linecap="round" stroke-linejoin="round" stroke-miterlimit="10" stroke-width="1"/>
        <path id="path853-6" data-name="path853" d="M0,0V23.462" transform="translate(155.994 922.984) rotate(180)" fill="none" stroke="#00243a" stroke-linecap="round" stroke-linejoin="round" stroke-miterlimit="10" stroke-width="1"/>
        <path id="path857-9" data-name="path857" d="M-266.031,0l-2.219,2.273-.74.758" transform="translate(-113.031 926.081) rotate(180)" fill="none" stroke="#00243a" stroke-linecap="round" stroke-linejoin="round" stroke-miterlimit="10" stroke-width="1"/>
      </g>
      <g id="Group_10-4" data-name="Group 10" transform="translate(-35 85)">
        <path id="path857-7-8" data-name="path857-7" d="M28.574,29.275,0,0" transform="translate(94 862.01)" fill="none" stroke="#00243a" stroke-linecap="round" stroke-linejoin="round" stroke-miterlimit="10" stroke-width="1"/>
        <path id="path861-6-8" data-name="path861-6" d="M0,0V23.442" transform="translate(122.574 891.285) rotate(180)" fill="none" stroke="#00243a" stroke-linecap="round" stroke-linejoin="round" stroke-miterlimit="10" stroke-width="1"/>
        <path id="path837-10" data-name="path837" d="M0-246.467l28.6-29.294" transform="translate(124.997 1170.752)" fill="none" stroke="#00243a" stroke-linecap="round" stroke-linejoin="round" stroke-miterlimit="10" stroke-width="1"/>
        <path id="path853-7" data-name="path853" d="M0,0V23.488" transform="translate(125.003 900.797)" fill="none" stroke="#00243a" stroke-linecap="round" stroke-linejoin="round" stroke-miterlimit="10" stroke-width="1"/>
        <path id="path857-10" data-name="path857" d="M-240.414,0l-28.574,29.275" transform="translate(393.985 871.522)" fill="none" stroke="#00243a" stroke-linecap="round" stroke-linejoin="round" stroke-miterlimit="10" stroke-width="1"/>
        <path id="path861-7" data-name="path861" d="M0,0V23.442" transform="translate(153.596 871.522)" fill="none" stroke="#00243a" stroke-linecap="round" stroke-linejoin="round" stroke-miterlimit="10" stroke-width="1"/>
        <path id="path857-7-9" data-name="path857-7" d="M28.574,29.275,0,0" transform="translate(124.997 900.797) rotate(180)" fill="none" stroke="#00243a" stroke-linecap="round" stroke-linejoin="round" stroke-miterlimit="10" stroke-width="1"/>
        <path id="path837-9-11" data-name="path837-9" d="M0,0,28.6,29.294" transform="translate(124.997 924.285) rotate(180)" fill="none" stroke="#00243a" stroke-linecap="round" stroke-linejoin="round" stroke-miterlimit="10" stroke-width="1"/>
        <path id="path861-6-9" data-name="path861-6" d="M0,0V23.442" transform="translate(96.422 871.522)" fill="none" stroke="#00243a" stroke-linecap="round" stroke-linejoin="round" stroke-miterlimit="10" stroke-width="1"/>
        <path id="path837-11" data-name="path837" d="M0-272.945l2.749-2.816" transform="translate(130.152 592.055) rotate(180)" fill="none" stroke="#00243a" stroke-linecap="round" stroke-linejoin="round" stroke-miterlimit="10" stroke-width="1"/>
        <path id="path857-11" data-name="path857" d="M-243.333,0l-25.656,26.285" transform="translate(-115.907 891.285) rotate(180)" fill="none" stroke="#00243a" stroke-linecap="round" stroke-linejoin="round" stroke-miterlimit="10" stroke-width="1"/>
        <path id="path861-8" data-name="path861" d="M0,0V23.442" transform="translate(127.4 891.285) rotate(180)" fill="none" stroke="#00243a" stroke-linecap="round" stroke-linejoin="round" stroke-miterlimit="10" stroke-width="1"/>
        <path id="path837-9-12" data-name="path837-9" d="M0,0,25.847,26.478" transform="translate(94 899.522)" fill="none" stroke="#00243a" stroke-linecap="round" stroke-linejoin="round" stroke-miterlimit="10" stroke-width="1"/>
        <path id="path837-9-13" data-name="path837-9" d="M0,0,2.749,2.816" transform="translate(119.847 865)" fill="none" stroke="#00243a" stroke-linecap="round" stroke-linejoin="round" stroke-miterlimit="10" stroke-width="1"/>
        <path id="path837-12" data-name="path837" d="M0-249.283l25.848-26.478" transform="translate(156 650.239) rotate(180)" fill="none" stroke="#00243a" stroke-linecap="round" stroke-linejoin="round" stroke-miterlimit="10" stroke-width="1"/>
        <path id="path853-8" data-name="path853" d="M0,0V23.462" transform="translate(155.994 922.984) rotate(180)" fill="none" stroke="#00243a" stroke-linecap="round" stroke-linejoin="round" stroke-miterlimit="10" stroke-width="1"/>
        <path id="path857-12" data-name="path857" d="M-266.031,0l-2.219,2.273-.74.758" transform="translate(-113.031 926.081) rotate(180)" fill="none" stroke="#00243a" stroke-linecap="round" stroke-linejoin="round" stroke-miterlimit="10" stroke-width="1"/>
      </g>
      <g id="Group_10-5" data-name="Group 10" transform="translate(27 85)">
        <path id="path857-7-10" data-name="path857-7" d="M28.574,29.275,0,0" transform="translate(94 862.01)" fill="none" stroke="#00243a" stroke-linecap="round" stroke-linejoin="round" stroke-miterlimit="10" stroke-width="1"/>
        <path id="path861-6-10" data-name="path861-6" d="M0,0V23.442" transform="translate(122.574 891.285) rotate(180)" fill="none" stroke="#00243a" stroke-linecap="round" stroke-linejoin="round" stroke-miterlimit="10" stroke-width="1"/>
        <path id="path837-13" data-name="path837" d="M0-246.467l28.6-29.294" transform="translate(124.997 1170.752)" fill="none" stroke="#00243a" stroke-linecap="round" stroke-linejoin="round" stroke-miterlimit="10" stroke-width="1"/>
        <path id="path853-9" data-name="path853" d="M0,0V23.488" transform="translate(125.003 900.797)" fill="none" stroke="#00243a" stroke-linecap="round" stroke-linejoin="round" stroke-miterlimit="10" stroke-width="1"/>
        <path id="path857-13" data-name="path857" d="M-240.414,0l-28.574,29.275" transform="translate(393.985 871.522)" fill="none" stroke="#00243a" stroke-linecap="round" stroke-linejoin="round" stroke-miterlimit="10" stroke-width="1"/>
        <path id="path861-9" data-name="path861" d="M0,0V23.442" transform="translate(153.596 871.522)" fill="none" stroke="#00243a" stroke-linecap="round" stroke-linejoin="round" stroke-miterlimit="10" stroke-width="1"/>
        <path id="path857-7-11" data-name="path857-7" d="M28.574,29.275,0,0" transform="translate(124.997 900.797) rotate(180)" fill="none" stroke="#00243a" stroke-linecap="round" stroke-linejoin="round" stroke-miterlimit="10" stroke-width="1"/>
        <path id="path837-9-14" data-name="path837-9" d="M0,0,28.6,29.294" transform="translate(124.997 924.285) rotate(180)" fill="none" stroke="#00243a" stroke-linecap="round" stroke-linejoin="round" stroke-miterlimit="10" stroke-width="1"/>
        <path id="path861-6-11" data-name="path861-6" d="M0,0V23.442" transform="translate(96.422 871.522)" fill="none" stroke="#00243a" stroke-linecap="round" stroke-linejoin="round" stroke-miterlimit="10" stroke-width="1"/>
        <path id="path837-14" data-name="path837" d="M0-272.945l2.749-2.816" transform="translate(130.152 592.055) rotate(180)" fill="none" stroke="#00243a" stroke-linecap="round" stroke-linejoin="round" stroke-miterlimit="10" stroke-width="1"/>
        <path id="path857-14" data-name="path857" d="M-243.333,0l-25.656,26.285" transform="translate(-115.907 891.285) rotate(180)" fill="none" stroke="#00243a" stroke-linecap="round" stroke-linejoin="round" stroke-miterlimit="10" stroke-width="1"/>
        <path id="path861-10" data-name="path861" d="M0,0V23.442" transform="translate(127.4 891.285) rotate(180)" fill="none" stroke="#00243a" stroke-linecap="round" stroke-linejoin="round" stroke-miterlimit="10" stroke-width="1"/>
        <path id="path837-9-15" data-name="path837-9" d="M0,0,25.847,26.478" transform="translate(94 899.522)" fill="none" stroke="#00243a" stroke-linecap="round" stroke-linejoin="round" stroke-miterlimit="10" stroke-width="1"/>
        <path id="path837-9-16" data-name="path837-9" d="M0,0,2.749,2.816" transform="translate(119.847 865)" fill="none" stroke="#00243a" stroke-linecap="round" stroke-linejoin="round" stroke-miterlimit="10" stroke-width="1"/>
        <path id="path837-15" data-name="path837" d="M0-249.283l25.848-26.478" transform="translate(156 650.239) rotate(180)" fill="none" stroke="#00243a" stroke-linecap="round" stroke-linejoin="round" stroke-miterlimit="10" stroke-width="1"/>
        <path id="path853-10" data-name="path853" d="M0,0V23.462" transform="translate(155.994 922.984) rotate(180)" fill="none" stroke="#00243a" stroke-linecap="round" stroke-linejoin="round" stroke-miterlimit="10" stroke-width="1"/>
        <path id="path857-15" data-name="path857" d="M-266.031,0l-2.219,2.273-.74.758" transform="translate(-113.031 926.081) rotate(180)" fill="none" stroke="#00243a" stroke-linecap="round" stroke-linejoin="round" stroke-miterlimit="10" stroke-width="1"/>
      </g>
      <g id="Group_10-6" data-name="Group 10" transform="translate(89 85)">
        <path id="path857-7-12" data-name="path857-7" d="M28.574,29.275,0,0" transform="translate(94 862.01)" fill="none" stroke="#00243a" stroke-linecap="round" stroke-linejoin="round" stroke-miterlimit="10" stroke-width="1"/>
        <path id="path861-6-12" data-name="path861-6" d="M0,0V23.442" transform="translate(122.574 891.285) rotate(180)" fill="none" stroke="#00243a" stroke-linecap="round" stroke-linejoin="round" stroke-miterlimit="10" stroke-width="1"/>
        <path id="path837-16" data-name="path837" d="M0-246.467l28.6-29.294" transform="translate(124.997 1170.752)" fill="none" stroke="#00243a" stroke-linecap="round" stroke-linejoin="round" stroke-miterlimit="10" stroke-width="1"/>
        <path id="path853-11" data-name="path853" d="M0,0V23.488" transform="translate(125.003 900.797)" fill="none" stroke="#00243a" stroke-linecap="round" stroke-linejoin="round" stroke-miterlimit="10" stroke-width="1"/>
        <path id="path857-16" data-name="path857" d="M-240.414,0l-28.574,29.275" transform="translate(393.985 871.522)" fill="none" stroke="#00243a" stroke-linecap="round" stroke-linejoin="round" stroke-miterlimit="10" stroke-width="1"/>
        <path id="path861-11" data-name="path861" d="M0,0V23.442" transform="translate(153.596 871.522)" fill="none" stroke="#00243a" stroke-linecap="round" stroke-linejoin="round" stroke-miterlimit="10" stroke-width="1"/>
        <path id="path857-7-13" data-name="path857-7" d="M28.574,29.275,0,0" transform="translate(124.997 900.797) rotate(180)" fill="none" stroke="#00243a" stroke-linecap="round" stroke-linejoin="round" stroke-miterlimit="10" stroke-width="1"/>
        <path id="path837-9-17" data-name="path837-9" d="M0,0,28.6,29.294" transform="translate(124.997 924.285) rotate(180)" fill="none" stroke="#00243a" stroke-linecap="round" stroke-linejoin="round" stroke-miterlimit="10" stroke-width="1"/>
        <path id="path861-6-13" data-name="path861-6" d="M0,0V23.442" transform="translate(96.422 871.522)" fill="none" stroke="#00243a" stroke-linecap="round" stroke-linejoin="round" stroke-miterlimit="10" stroke-width="1"/>
        <path id="path837-17" data-name="path837" d="M0-272.945l2.749-2.816" transform="translate(130.152 592.055) rotate(180)" fill="none" stroke="#00243a" stroke-linecap="round" stroke-linejoin="round" stroke-miterlimit="10" stroke-width="1"/>
        <path id="path857-17" data-name="path857" d="M-243.333,0l-25.656,26.285" transform="translate(-115.907 891.285) rotate(180)" fill="none" stroke="#00243a" stroke-linecap="round" stroke-linejoin="round" stroke-miterlimit="10" stroke-width="1"/>
        <path id="path861-12" data-name="path861" d="M0,0V23.442" transform="translate(127.4 891.285) rotate(180)" fill="none" stroke="#00243a" stroke-linecap="round" stroke-linejoin="round" stroke-miterlimit="10" stroke-width="1"/>
        <path id="path837-9-18" data-name="path837-9" d="M0,0,25.847,26.478" transform="translate(94 899.522)" fill="none" stroke="#00243a" stroke-linecap="round" stroke-linejoin="round" stroke-miterlimit="10" stroke-width="1"/>
        <path id="path837-9-19" data-name="path837-9" d="M0,0,2.749,2.816" transform="translate(119.847 865)" fill="none" stroke="#00243a" stroke-linecap="round" stroke-linejoin="round" stroke-miterlimit="10" stroke-width="1"/>
        <path id="path837-18" data-name="path837" d="M0-249.283l25.848-26.478" transform="translate(156 650.239) rotate(180)" fill="none" stroke="#00243a" stroke-linecap="round" stroke-linejoin="round" stroke-miterlimit="10" stroke-width="1"/>
        <path id="path853-12" data-name="path853" d="M0,0V23.462" transform="translate(155.994 922.984) rotate(180)" fill="none" stroke="#00243a" stroke-linecap="round" stroke-linejoin="round" stroke-miterlimit="10" stroke-width="1"/>
        <path id="path857-18" data-name="path857" d="M-266.031,0l-2.219,2.273-.74.758" transform="translate(-113.031 926.081) rotate(180)" fill="none" stroke="#00243a" stroke-linecap="round" stroke-linejoin="round" stroke-miterlimit="10" stroke-width="1"/>
      </g>
      <g id="Group_10-7" data-name="Group 10" transform="translate(-35 146)">
        <path id="path857-7-14" data-name="path857-7" d="M28.574,29.275,0,0" transform="translate(94 862.01)" fill="none" stroke="#00243a" stroke-linecap="round" stroke-linejoin="round" stroke-miterlimit="10" stroke-width="1"/>
        <path id="path861-6-14" data-name="path861-6" d="M0,0V23.442" transform="translate(122.574 891.285) rotate(180)" fill="none" stroke="#00243a" stroke-linecap="round" stroke-linejoin="round" stroke-miterlimit="10" stroke-width="1"/>
        <path id="path837-19" data-name="path837" d="M0-246.467l28.6-29.294" transform="translate(124.997 1170.752)" fill="none" stroke="#00243a" stroke-linecap="round" stroke-linejoin="round" stroke-miterlimit="10" stroke-width="1"/>
        <path id="path853-13" data-name="path853" d="M0,0V23.488" transform="translate(125.003 900.797)" fill="none" stroke="#00243a" stroke-linecap="round" stroke-linejoin="round" stroke-miterlimit="10" stroke-width="1"/>
        <path id="path857-19" data-name="path857" d="M-240.414,0l-28.574,29.275" transform="translate(393.985 871.522)" fill="none" stroke="#00243a" stroke-linecap="round" stroke-linejoin="round" stroke-miterlimit="10" stroke-width="1"/>
        <path id="path861-13" data-name="path861" d="M0,0V23.442" transform="translate(153.596 871.522)" fill="none" stroke="#00243a" stroke-linecap="round" stroke-linejoin="round" stroke-miterlimit="10" stroke-width="1"/>
        <path id="path857-7-15" data-name="path857-7" d="M28.574,29.275,0,0" transform="translate(124.997 900.797) rotate(180)" fill="none" stroke="#00243a" stroke-linecap="round" stroke-linejoin="round" stroke-miterlimit="10" stroke-width="1"/>
        <path id="path837-9-20" data-name="path837-9" d="M0,0,28.6,29.294" transform="translate(124.997 924.285) rotate(180)" fill="none" stroke="#00243a" stroke-linecap="round" stroke-linejoin="round" stroke-miterlimit="10" stroke-width="1"/>
        <path id="path861-6-15" data-name="path861-6" d="M0,0V23.442" transform="translate(96.422 871.522)" fill="none" stroke="#00243a" stroke-linecap="round" stroke-linejoin="round" stroke-miterlimit="10" stroke-width="1"/>
        <path id="path837-20" data-name="path837" d="M0-272.945l2.749-2.816" transform="translate(130.152 592.055) rotate(180)" fill="none" stroke="#00243a" stroke-linecap="round" stroke-linejoin="round" stroke-miterlimit="10" stroke-width="1"/>
        <path id="path857-20" data-name="path857" d="M-243.333,0l-25.656,26.285" transform="translate(-115.907 891.285) rotate(180)" fill="none" stroke="#00243a" stroke-linecap="round" stroke-linejoin="round" stroke-miterlimit="10" stroke-width="1"/>
        <path id="path861-14" data-name="path861" d="M0,0V23.442" transform="translate(127.4 891.285) rotate(180)" fill="none" stroke="#00243a" stroke-linecap="round" stroke-linejoin="round" stroke-miterlimit="10" stroke-width="1"/>
        <path id="path837-9-21" data-name="path837-9" d="M0,0,25.847,26.478" transform="translate(94 899.522)" fill="none" stroke="#00243a" stroke-linecap="round" stroke-linejoin="round" stroke-miterlimit="10" stroke-width="1"/>
        <path id="path837-9-22" data-name="path837-9" d="M0,0,2.749,2.816" transform="translate(119.847 865)" fill="none" stroke="#00243a" stroke-linecap="round" stroke-linejoin="round" stroke-miterlimit="10" stroke-width="1"/>
        <path id="path837-21" data-name="path837" d="M0-249.283l25.848-26.478" transform="translate(156 650.239) rotate(180)" fill="none" stroke="#00243a" stroke-linecap="round" stroke-linejoin="round" stroke-miterlimit="10" stroke-width="1"/>
        <path id="path853-14" data-name="path853" d="M0,0V23.462" transform="translate(155.994 922.984) rotate(180)" fill="none" stroke="#00243a" stroke-linecap="round" stroke-linejoin="round" stroke-miterlimit="10" stroke-width="1"/>
        <path id="path857-21" data-name="path857" d="M-266.031,0l-2.219,2.273-.74.758" transform="translate(-113.031 926.081) rotate(180)" fill="none" stroke="#00243a" stroke-linecap="round" stroke-linejoin="round" stroke-miterlimit="10" stroke-width="1"/>
      </g>
      <g id="Group_10-8" data-name="Group 10" transform="translate(27 146)">
        <path id="path857-7-16" data-name="path857-7" d="M28.574,29.275,0,0" transform="translate(94 862.01)" fill="none" stroke="#00243a" stroke-linecap="round" stroke-linejoin="round" stroke-miterlimit="10" stroke-width="1"/>
        <path id="path861-6-16" data-name="path861-6" d="M0,0V23.442" transform="translate(122.574 891.285) rotate(180)" fill="none" stroke="#00243a" stroke-linecap="round" stroke-linejoin="round" stroke-miterlimit="10" stroke-width="1"/>
        <path id="path837-22" data-name="path837" d="M0-246.467l28.6-29.294" transform="translate(124.997 1170.752)" fill="none" stroke="#00243a" stroke-linecap="round" stroke-linejoin="round" stroke-miterlimit="10" stroke-width="1"/>
        <path id="path853-15" data-name="path853" d="M0,0V23.488" transform="translate(125.003 900.797)" fill="none" stroke="#00243a" stroke-linecap="round" stroke-linejoin="round" stroke-miterlimit="10" stroke-width="1"/>
        <path id="path857-22" data-name="path857" d="M-240.414,0l-28.574,29.275" transform="translate(393.985 871.522)" fill="none" stroke="#00243a" stroke-linecap="round" stroke-linejoin="round" stroke-miterlimit="10" stroke-width="1"/>
        <path id="path861-15" data-name="path861" d="M0,0V23.442" transform="translate(153.596 871.522)" fill="none" stroke="#00243a" stroke-linecap="round" stroke-linejoin="round" stroke-miterlimit="10" stroke-width="1"/>
        <path id="path857-7-17" data-name="path857-7" d="M28.574,29.275,0,0" transform="translate(124.997 900.797) rotate(180)" fill="none" stroke="#00243a" stroke-linecap="round" stroke-linejoin="round" stroke-miterlimit="10" stroke-width="1"/>
        <path id="path837-9-23" data-name="path837-9" d="M0,0,28.6,29.294" transform="translate(124.997 924.285) rotate(180)" fill="none" stroke="#00243a" stroke-linecap="round" stroke-linejoin="round" stroke-miterlimit="10" stroke-width="1"/>
        <path id="path861-6-17" data-name="path861-6" d="M0,0V23.442" transform="translate(96.422 871.522)" fill="none" stroke="#00243a" stroke-linecap="round" stroke-linejoin="round" stroke-miterlimit="10" stroke-width="1"/>
        <path id="path837-23" data-name="path837" d="M0-272.945l2.749-2.816" transform="translate(130.152 592.055) rotate(180)" fill="none" stroke="#00243a" stroke-linecap="round" stroke-linejoin="round" stroke-miterlimit="10" stroke-width="1"/>
        <path id="path857-23" data-name="path857" d="M-243.333,0l-25.656,26.285" transform="translate(-115.907 891.285) rotate(180)" fill="none" stroke="#00243a" stroke-linecap="round" stroke-linejoin="round" stroke-miterlimit="10" stroke-width="1"/>
        <path id="path861-16" data-name="path861" d="M0,0V23.442" transform="translate(127.4 891.285) rotate(180)" fill="none" stroke="#00243a" stroke-linecap="round" stroke-linejoin="round" stroke-miterlimit="10" stroke-width="1"/>
        <path id="path837-9-24" data-name="path837-9" d="M0,0,25.847,26.478" transform="translate(94 899.522)" fill="none" stroke="#00243a" stroke-linecap="round" stroke-linejoin="round" stroke-miterlimit="10" stroke-width="1"/>
        <path id="path837-9-25" data-name="path837-9" d="M0,0,2.749,2.816" transform="translate(119.847 865)" fill="none" stroke="#00243a" stroke-linecap="round" stroke-linejoin="round" stroke-miterlimit="10" stroke-width="1"/>
        <path id="path837-24" data-name="path837" d="M0-249.283l25.848-26.478" transform="translate(156 650.239) rotate(180)" fill="none" stroke="#00243a" stroke-linecap="round" stroke-linejoin="round" stroke-miterlimit="10" stroke-width="1"/>
        <path id="path853-16" data-name="path853" d="M0,0V23.462" transform="translate(155.994 922.984) rotate(180)" fill="none" stroke="#00243a" stroke-linecap="round" stroke-linejoin="round" stroke-miterlimit="10" stroke-width="1"/>
        <path id="path857-24" data-name="path857" d="M-266.031,0l-2.219,2.273-.74.758" transform="translate(-113.031 926.081) rotate(180)" fill="none" stroke="#00243a" stroke-linecap="round" stroke-linejoin="round" stroke-miterlimit="10" stroke-width="1"/>
      </g>
      <g id="Group_10-9" data-name="Group 10" transform="translate(89 146)">
        <path id="path857-7-18" data-name="path857-7" d="M28.574,29.275,0,0" transform="translate(94 862.01)" fill="none" stroke="#00243a" stroke-linecap="round" stroke-linejoin="round" stroke-miterlimit="10" stroke-width="1"/>
        <path id="path861-6-18" data-name="path861-6" d="M0,0V23.442" transform="translate(122.574 891.285) rotate(180)" fill="none" stroke="#00243a" stroke-linecap="round" stroke-linejoin="round" stroke-miterlimit="10" stroke-width="1"/>
        <path id="path837-25" data-name="path837" d="M0-246.467l28.6-29.294" transform="translate(124.997 1170.752)" fill="none" stroke="#00243a" stroke-linecap="round" stroke-linejoin="round" stroke-miterlimit="10" stroke-width="1"/>
        <path id="path853-17" data-name="path853" d="M0,0V23.488" transform="translate(125.003 900.797)" fill="none" stroke="#00243a" stroke-linecap="round" stroke-linejoin="round" stroke-miterlimit="10" stroke-width="1"/>
        <path id="path857-25" data-name="path857" d="M-240.414,0l-28.574,29.275" transform="translate(393.985 871.522)" fill="none" stroke="#00243a" stroke-linecap="round" stroke-linejoin="round" stroke-miterlimit="10" stroke-width="1"/>
        <path id="path861-17" data-name="path861" d="M0,0V23.442" transform="translate(153.596 871.522)" fill="none" stroke="#00243a" stroke-linecap="round" stroke-linejoin="round" stroke-miterlimit="10" stroke-width="1"/>
        <path id="path857-7-19" data-name="path857-7" d="M28.574,29.275,0,0" transform="translate(124.997 900.797) rotate(180)" fill="none" stroke="#00243a" stroke-linecap="round" stroke-linejoin="round" stroke-miterlimit="10" stroke-width="1"/>
        <path id="path837-9-26" data-name="path837-9" d="M0,0,28.6,29.294" transform="translate(124.997 924.285) rotate(180)" fill="none" stroke="#00243a" stroke-linecap="round" stroke-linejoin="round" stroke-miterlimit="10" stroke-width="1"/>
        <path id="path861-6-19" data-name="path861-6" d="M0,0V23.442" transform="translate(96.422 871.522)" fill="none" stroke="#00243a" stroke-linecap="round" stroke-linejoin="round" stroke-miterlimit="10" stroke-width="1"/>
        <path id="path837-26" data-name="path837" d="M0-272.945l2.749-2.816" transform="translate(130.152 592.055) rotate(180)" fill="none" stroke="#00243a" stroke-linecap="round" stroke-linejoin="round" stroke-miterlimit="10" stroke-width="1"/>
        <path id="path857-26" data-name="path857" d="M-243.333,0l-25.656,26.285" transform="translate(-115.907 891.285) rotate(180)" fill="none" stroke="#00243a" stroke-linecap="round" stroke-linejoin="round" stroke-miterlimit="10" stroke-width="1"/>
        <path id="path861-18" data-name="path861" d="M0,0V23.442" transform="translate(127.4 891.285) rotate(180)" fill="none" stroke="#00243a" stroke-linecap="round" stroke-linejoin="round" stroke-miterlimit="10" stroke-width="1"/>
        <path id="path837-9-27" data-name="path837-9" d="M0,0,25.847,26.478" transform="translate(94 899.522)" fill="none" stroke="#00243a" stroke-linecap="round" stroke-linejoin="round" stroke-miterlimit="10" stroke-width="1"/>
        <path id="path837-9-28" data-name="path837-9" d="M0,0,2.749,2.816" transform="translate(119.847 865)" fill="none" stroke="#00243a" stroke-linecap="round" stroke-linejoin="round" stroke-miterlimit="10" stroke-width="1"/>
        <path id="path837-27" data-name="path837" d="M0-249.283l25.848-26.478" transform="translate(156 650.239) rotate(180)" fill="none" stroke="#00243a" stroke-linecap="round" stroke-linejoin="round" stroke-miterlimit="10" stroke-width="1"/>
        <path id="path853-18" data-name="path853" d="M0,0V23.462" transform="translate(155.994 922.984) rotate(180)" fill="none" stroke="#00243a" stroke-linecap="round" stroke-linejoin="round" stroke-miterlimit="10" stroke-width="1"/>
        <path id="path857-27" data-name="path857" d="M-266.031,0l-2.219,2.273-.74.758" transform="translate(-113.031 926.081) rotate(180)" fill="none" stroke="#00243a" stroke-linecap="round" stroke-linejoin="round" stroke-miterlimit="10" stroke-width="1"/>
      </g>
    </g>
  </g>
</svg>
